PathFileType	4	(X/Y/Z)	25_coords_data.trc
DataRate	CameraRate	NumFrames	NumMarkers	Units	OrigDataRate	OrigDataStartFrame	OrigNumFrames
30.0	30.0	4	21	m	30.0	1	65
Frame#	Time	THUMB_TIP	THUMB_IP	THUMB_MCP	THUMB_CMC	INDEX_TIP	INDEX_DIP	INDEX_PIP	INDEX_MCP	MIDDLE_TIP	MIDDLE_DIP	MIDDLE_PIP	MIDDLE_MCP	RING_TIP	RING_DIP	RING_PIP	RING_MCP	PINKY_TIP	PINKY_DIP	PINKY_PIP	PINKY_MCP	WRIST
X1	Y1	Z1	X2	Y2	Z2	X3	Y3	Z3	X4	Y4	Z4	X5	Y5	Z5	X6	Y6	Z6	X7	Y7	Z7	X8	Y8	Z8	X9	Y9	Z9	X10	Y10	Z10	X11	Y11	Z11	X12	Y12	Z12	X13	Y13	Z13	X14	Y14	Z14	X15	Y15	Z15	X16	Y16	Z16	X17	Y17	Z17	X18	Y18	Z18	X19	Y19	Z19	X20	Y20	Z20	X21	Y21	Z21
0	0.0	-0.032762699127197266	-0.08720559692382812	0.8925780029296875	-0.034191600799560545	-0.06137160110473633	0.9089910278320312	-0.0415166015625	-0.0349197998046875	0.9303090209960938	-0.04898350143432617	-0.007434010028839111	0.9501500244140625	-0.007953780174255371	-0.022483999252319337	0.805906982421875	-0.010960399627685547	-0.018184600830078126	0.8307550048828125	-0.019859199523925782	-0.01128969955444336	0.8531220092773437	-0.03317919921875	-0.001841959953308105	0.8903560180664063	-0.012884499549865723	0.03872969818115234	0.797530029296875	-0.014159299850463868	0.031393100738525394	0.8230900268554687	-0.02047710037231445	0.026221900939941405	0.8499210205078125	-0.04137509918212891	0.021416400909423827	0.8881840209960937	-0.0060299201011657705	0.07897660064697265	0.8205280151367188	-0.011985199928283691	0.06800980377197266	0.8414970092773437	-0.020582599639892576	0.05680849838256836	0.8638330078125	-0.0347677001953125	0.039945899963378904	0.894176025390625	-0.01754490089416504	0.10554299926757812	0.8628670043945312	-0.02025670051574707	0.09048439788818359	0.8779349975585937	-0.025606199264526366	0.07763919830322266	0.8896840209960938	-0.03347439956665039	0.055639598846435545	0.9088060302734375	-0.08016429901123047	0.020801799774169922	0.9705900268554688
1	0.03333333333333333	-0.031641799926757815	-0.08629149627685546	0.8921119995117187	-0.03321030044555664	-0.06196260070800781	0.9088679809570313	-0.03947769927978516	-0.03659550094604492	0.9295159912109375	-0.04913539886474609	-0.005436339855194092	0.9490070190429688	-0.008905400276184082	-0.022828699111938477	0.8066309814453125	-0.012362299919128418	-0.017774299621582033	0.8307630004882812	-0.019027599334716795	-0.012207200050354004	0.8522329711914063	-0.03351580047607422	-0.001685029983520507	0.8902100219726562	-0.014551799774169922	0.039770599365234374	0.797427001953125	-0.015942500114440917	0.032499198913574216	0.8218770141601562	-0.022252199172973632	0.02641909980773926	0.8485040283203125	-0.03810049819946289	0.020821599960327147	0.88875	-0.007580639839172364	0.07927189636230468	0.8203870239257812	-0.013509099960327148	0.06783660125732421	0.8419439697265625	-0.022509500503540038	0.056287899017333984	0.8639600219726562	-0.036098701477050785	0.03989469909667969	0.8959219970703125	-0.018646699905395508	0.10601999664306641	0.8632490234375	-0.021020700454711914	0.09072090148925781	0.8777650146484375	-0.02506319999694824	0.07707119750976563	0.8895070190429688	-0.0345973014831543	0.05531499862670899	0.908051025390625	-0.07892430114746093	0.018729400634765626	0.9707319946289062
2	0.06666666666666667	-0.03231600189208984	-0.08615339660644532	0.8917880249023438	-0.03376240158081055	-0.061867401123046874	0.9086699829101562	-0.03992369842529297	-0.03658869934082031	0.9293049926757813	-0.04955550003051758	-0.005521920204162598	0.9488569946289063	-0.007961249828338623	-0.022287399291992187	0.8068289794921875	-0.011472299575805664	-0.01750979995727539	0.830697998046875	-0.018297300338745118	-0.011974599838256836	0.8524249877929687	-0.033214298248291016	-0.0015331000089645382	0.8902949829101563	-0.012184599876403808	0.04037429809570312	0.7981690063476562	-0.014105199813842773	0.032903099060058595	0.8223519897460938	-0.020829999923706054	0.026733299255371094	0.8488159790039063	-0.03763899993896484	0.021021900177001954	0.8889140014648438	-0.0050230598449707035	0.07951920318603516	0.8212559814453125	-0.011553600311279296	0.06805619812011719	0.8427449951171875	-0.021034400939941408	0.05648929977416992	0.8645260009765625	-0.03518870162963867	0.04012649917602539	0.8961179809570312	-0.01654599952697754	0.10617500305175781	0.8640399780273438	-0.019141300201416016	0.09079389953613282	0.8785960083007812	-0.023709699630737303	0.07717449951171874	0.8901920166015626	-0.03381100082397461	0.05539070129394531	0.9084520263671875	-0.07928469848632813	0.019040000915527343	0.9706669921875
3	0.1	-0.032375301361083984	-0.08570839691162109	0.8907849731445312	-0.03382270050048828	-0.06162210083007812	0.9080369873046875	-0.03992570114135742	-0.03654510116577148	0.928927001953125	-0.04943849945068359	-0.005669760227203369	0.9486649780273437	-0.007545430183410645	-0.0213656005859375	0.8066649780273437	-0.011086700439453125	-0.016667699813842772	0.8306090087890625	-0.01793989944458008	-0.011344099998474121	0.8523839721679688	-0.032768199920654294	-0.001227519989013671	0.8902990112304687	-0.01147249984741211	0.041329700469970705	0.7983579711914063	-0.013313699722290039	0.03368389892578125	0.8230570068359375	-0.020285999298095703	0.027371999740600585	0.84914697265625	-0.037112098693847656	0.0213617000579834	0.889135009765625	-0.004634610176086426	0.07994860076904296	0.8215780029296875	-0.011059700012207031	0.06841609954833984	0.8431539916992188	-0.02051919937133789	0.05679690170288086	0.8649110107421875	-0.034582199096679686	0.04032419967651367	0.8964119873046875	-0.016049699783325197	0.10640499877929688	0.8646959838867188	-0.018544700622558592	0.09098660278320313	0.8791820068359375	-0.02305299949645996	0.07735079956054687	0.8907760009765625	-0.0330885009765625	0.05551050186157227	0.9087730102539062	-0.07896199798583985	0.019035499572753908	0.9706589965820313
